Coordinates
version=1
nRows=16
nColumns=63
inDegrees=yes

Units are S.I. units (second, meters, Newtons, ...)
If the header above contains a line with 'inDegrees', this indicates whether rotational values are in degrees (yes) or radians (no).

endheader
time	pelvis_tilt	pelvis_list	pelvis_rotation	pelvis_tx	pelvis_ty	pelvis_tz	hip_flexion_r	hip_adduction_r	hip_rotation_r	knee_angle_r	knee_angle_r_beta	ankle_angle_r	subtalar_angle_r	mtp_angle_r	hip_flexion_l	hip_adduction_l	hip_rotation_l	knee_angle_l	knee_angle_l_beta	ankle_angle_l	subtalar_angle_l	mtp_angle_l	L5_S1_Flex_Ext	L5_S1_Lat_Bending	L5_S1_axial_rotation	L4_L5_Flex_Ext	L4_L5_Lat_Bending	L4_L5_axial_rotation	L3_L4_Flex_Ext	L3_L4_Lat_Bending	L3_L4_axial_rotation	L2_L3_Flex_Ext	L2_L3_Lat_Bending	L2_L3_axial_rotation	L1_L2_Flex_Ext	L1_L2_Lat_Bending	L1_L2_axial_rotation	L1_T12_Flex_Ext	L1_T12_Lat_Bending	L1_T12_axial_rotation	Abs_r3	Abs_r2	Abs_r1	Abs_t1	Abs_t2	neck_flexion	neck_bending	neck_rotation	arm_flex_r	arm_add_r	arm_rot_r	elbow_flex_r	pro_sup_r	wrist_flex_r	wrist_dev_r	arm_flex_l	arm_add_l	arm_rot_l	elbow_flex_l	pro_sup_l	wrist_flex_l	wrist_dev_l
3.152542	-0.835749	-2.053416	86.689488	0.207830	0.815658	0.878262	5.955302	1.398770	13.440916	20.063001	0.350165	37.076209	-2.686740	0.000000	-1.134992	1.986730	7.176934	6.911373	0.120626	35.549786	-12.384835	0.000000	-0.266739	-0.191732	1.967011	-0.495361	-0.255003	2.089950	-0.438225	-0.466176	2.089950	-0.304856	-0.466176	1.721135	-0.247694	-0.390979	1.598197	-0.152415	-0.296992	1.475259	-1.905289	-2.168906	10.939927	0.000000	0.000000	7.955258	7.764408	-6.581312	22.806024	-21.127042	-31.848063	129.102658	79.568484	-11.444361	26.400029	29.184116	-11.441069	-18.385816	120.491152	80.760683	-13.367462	14.306766
3.169492	-0.894705	-2.003223	86.642989	0.207828	0.815513	0.878460	5.896546	1.347190	13.603293	20.001330	0.349089	37.154297	-2.795223	0.000000	-1.156969	2.038290	7.135099	6.874242	0.119978	35.667800	-12.290916	0.000000	-0.271807	-0.198903	1.939861	-0.504773	-0.264540	2.061102	-0.446552	-0.483612	2.061102	-0.310648	-0.483612	1.697378	-0.252400	-0.405602	1.576137	-0.155311	-0.308100	1.454895	-1.941490	-2.250026	10.788923	0.000000	0.000000	7.809716	7.892162	-6.346047	23.025702	-21.484955	-32.423856	127.863549	81.614160	-8.814874	24.838521	29.245611	-11.982960	-19.103770	121.232124	82.114610	-12.437861	12.848896
3.186441	-0.952871	-1.958268	86.559515	0.207912	0.815350	0.878647	5.849129	1.300736	13.801202	19.914807	0.347579	37.281484	-2.881180	0.000000	-1.177214	2.088564	7.120329	6.815388	0.118951	35.791996	-12.246336	0.000000	-0.278038	-0.207101	1.931282	-0.516345	-0.275445	2.051987	-0.456789	-0.503546	2.051987	-0.317770	-0.503546	1.689871	-0.258186	-0.422321	1.569166	-0.158871	-0.320800	1.448461	-1.986000	-2.342772	10.741209	0.000000	0.000000	7.739814	8.031804	-6.174826	23.175122	-21.807534	-32.875169	126.760348	83.751858	-5.861539	23.111628	29.400970	-12.390125	-19.630950	121.898119	83.620506	-10.869424	11.383203
3.203390	-1.008302	-1.926580	86.461908	0.208063	0.815164	0.878802	5.815214	1.259367	14.013547	19.801657	0.345604	37.442203	-2.940648	0.000000	-1.187977	2.134911	7.136727	6.743290	0.117693	35.909823	-12.243124	0.000000	-0.284212	-0.216084	1.931029	-0.527810	-0.287391	2.051718	-0.466932	-0.525386	2.051718	-0.324826	-0.525386	1.689650	-0.263919	-0.440638	1.568961	-0.162399	-0.334713	1.448272	-2.030099	-2.444380	10.739804	0.000000	0.000000	7.743115	8.189150	-6.028041	23.258834	-22.105109	-33.134132	125.890101	85.718952	-2.742304	21.324020	29.661414	-12.694377	-19.960458	122.582237	85.114124	-8.646756	10.153331
3.220339	-1.067729	-1.928037	86.378865	0.208260	0.814942	0.878894	5.810845	1.215645	14.211818	19.666852	0.343251	37.620187	-2.978781	0.000000	-1.168435	2.182872	7.208157	6.664739	0.116322	36.005337	-12.291222	0.000000	-0.286966	-0.226611	1.925003	-0.532924	-0.301393	2.045315	-0.471456	-0.550983	2.045315	-0.327973	-0.550983	1.684377	-0.266477	-0.462106	1.564065	-0.163972	-0.351021	1.443752	-2.049769	-2.563473	10.706287	0.000000	0.000000	7.812206	8.391848	-5.838968	23.286409	-22.372528	-33.129857	125.346650	87.458294	0.442824	19.601707	30.042493	-12.946019	-20.127062	123.400486	86.455877	-5.754612	9.405087
3.237288	-1.125711	-1.960102	86.285700	0.208524	0.814681	0.878903	5.836433	1.181438	14.436976	19.528739	0.340841	37.806195	-3.022543	0.000000	-1.126980	2.226806	7.288303	6.582050	0.114878	36.087279	-12.365312	0.000000	-0.287941	-0.238106	1.911547	-0.534735	-0.316681	2.031019	-0.473058	-0.578931	2.031019	-0.329088	-0.578931	1.672604	-0.267382	-0.485546	1.553132	-0.164529	-0.368826	1.433661	-2.056733	-2.693505	10.631453	0.000000	0.000000	7.997885	8.615129	-5.614954	23.272944	-22.653269	-32.772153	125.207020	88.593433	3.459807	17.940134	30.582428	-13.173190	-20.144791	124.479499	87.634664	-2.247100	9.326266
3.254237	-1.185225	-2.033717	86.217778	0.208818	0.814370	0.878785	5.897767	1.149621	14.645062	19.394649	0.338500	37.991514	-3.066589	0.000000	-1.050028	2.269029	7.413898	6.504253	0.113521	36.151352	-12.473970	0.000000	-0.285466	-0.251229	1.882726	-0.530139	-0.334134	2.000397	-0.468992	-0.610837	2.000397	-0.326259	-0.610837	1.647385	-0.265084	-0.512305	1.529715	-0.163115	-0.389153	1.412045	-2.039054	-2.841948	10.471159	0.000000	0.000000	8.318676	8.884163	-5.354784	23.209903	-22.949524	-32.030555	125.530142	89.195937	6.239457	16.407635	31.302340	-13.408111	-19.965591	125.894227	88.491206	1.733364	9.934809
3.271186	-1.245085	-2.154218	86.198922	0.209095	0.813996	0.878473	5.990227	1.117831	14.814687	19.263018	0.336203	38.170959	-3.115448	0.000000	-0.934407	2.308780	7.598574	6.437039	0.112348	36.208916	-12.602277	0.000000	-0.278134	-0.265837	1.839701	-0.516522	-0.353563	1.954683	-0.456946	-0.646355	1.954683	-0.317879	-0.646355	1.609739	-0.258275	-0.542094	1.494757	-0.158926	-0.411781	1.379776	-1.986683	-3.007196	10.231867	0.000000	0.000000	8.790499	9.182205	-5.095438	23.062237	-23.290030	-30.861876	126.347769	89.220875	8.571668	14.928666	32.192492	-13.682830	-19.404278	127.596824	88.970732	5.810769	10.769514
3.288136	-1.301641	-2.336810	86.198081	0.209374	0.813562	0.877956	6.129299	1.092826	14.979480	19.134617	0.333962	38.319670	-3.186252	0.000000	-0.776300	2.342464	7.830301	6.363094	0.111057	36.235830	-12.781069	0.000000	-0.263348	-0.281911	1.795133	-0.489064	-0.374941	1.907329	-0.432654	-0.685438	1.907329	-0.300980	-0.685438	1.570742	-0.244545	-0.574872	1.458546	-0.150477	-0.436680	1.346350	-1.881068	-3.189030	9.983993	0.000000	0.000000	9.404364	9.527328	-4.911671	22.810758	-23.654609	-29.328641	127.670414	88.712906	10.587589	13.603386	33.292121	-13.947727	-18.360013	129.620325	89.022992	10.025346	12.144542
3.305085	-1.357267	-2.576771	86.229077	0.209642	0.813078	0.877234	6.309743	1.070899	15.119850	19.012692	0.331834	38.429247	-3.290373	0.000000	-0.575244	2.371546	8.072066	6.294025	0.109851	36.245468	-12.950628	0.000000	-0.241671	-0.299288	1.747080	-0.448808	-0.398054	1.856273	-0.397042	-0.727690	1.856273	-0.276206	-0.727690	1.528695	-0.224416	-0.610309	1.419503	-0.138091	-0.463598	1.310310	-1.726235	-3.385610	9.716737	0.000000	0.000000	10.148158	9.905697	-4.791418	22.508731	-24.004928	-27.351079	129.428741	88.216632	12.144181	12.419765	34.547777	-14.251775	-16.697511	131.842510	88.865378	14.034593	13.539258
3.322034	-1.399392	-2.859227	86.315375	0.209838	0.812573	0.876345	6.511993	1.055704	15.196772	18.886735	0.329636	38.483389	-3.414259	0.000000	-0.340432	2.386789	8.351624	6.239295	0.108896	36.231595	-13.125757	0.000000	-0.214854	-0.315647	1.692998	-0.399005	-0.419811	1.798811	-0.352983	-0.767465	1.798811	-0.245556	-0.767465	1.481374	-0.199513	-0.643668	1.375561	-0.122767	-0.488938	1.269749	-1.534678	-3.570667	9.415949	0.000000	0.000000	10.988880	10.267645	-4.748800	22.234299	-24.320200	-24.882740	131.520946	88.013834	13.174367	11.399998	35.914213	-14.568974	-14.436917	134.147156	88.683378	17.857128	14.843469
3.338983	-1.424607	-3.168942	86.456078	0.209940	0.812068	0.875333	6.725341	1.047632	15.197604	18.764257	0.327498	38.472015	-3.549746	0.000000	-0.084053	2.386919	8.643709	6.204904	0.108296	36.194110	-13.288952	0.000000	-0.183763	-0.329767	1.632623	-0.341266	-0.438590	1.734662	-0.301904	-0.801795	1.734662	-0.210022	-0.801795	1.428545	-0.170642	-0.672461	1.326506	-0.105002	-0.510809	1.224467	-1.312598	-3.730389	9.080160	0.000000	0.000000	11.867197	10.594742	-4.772410	22.068377	-24.580360	-21.927739	133.801369	87.941207	13.785824	10.566111	37.330075	-14.886747	-11.651903	136.389658	88.596156	21.450942	15.895665
3.355932	-1.420380	-3.482148	86.660266	0.209912	0.811593	0.874249	6.926147	1.055421	15.102450	18.647027	0.325452	38.396318	-3.688389	0.000000	0.174219	2.360797	8.941932	6.197643	0.108169	36.128515	-13.423787	0.000000	-0.150864	-0.338823	1.563520	-0.280170	-0.450635	1.661240	-0.247855	-0.823814	1.661240	-0.172423	-0.823814	1.368080	-0.140093	-0.690928	1.270360	-0.086204	-0.524837	1.172640	-1.077608	-3.832833	8.695831	0.000000	0.000000	12.730438	10.849375	-4.833858	22.096187	-24.781223	-18.510227	136.127999	87.926182	14.060646	9.989783	38.719230	-15.190506	-8.486196	138.438205	88.586476	24.761714	16.605329
3.372881	-1.388858	-3.788788	86.906516	0.209779	0.811156	0.873134	7.111853	1.080563	14.937314	18.547159	0.323709	38.258976	-3.834235	0.000000	0.424466	2.310567	9.212066	6.214733	0.108468	36.047697	-13.507558	0.000000	-0.117214	-0.342578	1.491958	-0.217678	-0.455628	1.585206	-0.192571	-0.832943	1.585206	-0.133964	-0.832943	1.305463	-0.108845	-0.698584	1.212216	-0.066976	-0.530653	1.118969	-0.837248	-3.875307	8.297824	0.000000	0.000000	13.537294	10.987694	-4.952331	22.354119	-24.925210	-14.743705	138.392694	87.953579	14.099759	9.752793	40.028062	-15.471994	-5.027095	140.153793	88.621401	27.479015	16.742008
3.389831	-1.324435	-4.057396	87.205062	0.209508	0.810798	0.871970	7.242458	1.128797	14.703721	18.457148	0.322138	38.078831	-3.995009	0.000000	0.629017	2.230116	9.467527	6.242628	0.108954	35.961381	-13.526391	0.000000	-0.086072	-0.339367	1.417843	-0.159845	-0.451358	1.506458	-0.141408	-0.825137	1.506458	-0.098372	-0.825137	1.240612	-0.079927	-0.692038	1.151997	-0.049182	-0.525680	1.063382	-0.614805	-3.838990	7.885615	0.000000	0.000000	14.241741	11.009308	-5.080609	22.855186	-25.036554	-10.756548	140.466705	88.016013	13.951463	9.835055	41.207427	-15.696498	-1.432121	141.424479	88.662605	29.493687	16.254982
3.406780	-1.224726	-4.289105	87.582829	0.209078	0.810518	0.870782	7.322763	1.194125	14.334951	18.377397	0.320746	37.892617	-4.095627	0.000000	0.801058	2.116500	9.760455	6.290403	0.109788	35.879895	-13.503431	0.000000	-0.057043	-0.330302	1.346251	-0.105935	-0.439302	1.430391	-0.093716	-0.803096	1.430391	-0.065195	-0.803096	1.177969	-0.052970	-0.673552	1.093829	-0.032594	-0.511638	1.009688	-0.407454	-3.736443	7.487443	0.000000	0.000000	14.838375	10.940705	-5.313899	23.532823	-25.128072	-6.781286	142.267014	88.104348	13.708196	10.132477	42.271120	-15.785464	2.202619	142.141348	88.699461	30.788313	15.166080
